# xmcd CD database file
#
# Track frame offsets:
#	150
#	14276
#	41404
#	59434
#	86203
#	120146
#
# Disc length: 2116 seconds
#
# Revision: 0
# Processed by: cddbd v1.4PL0 Copyright (c) Steve Scherf et al.
# Submitted via: CDex 1.50
#
DISCID=41084206
DTITLE=AkashicRecord - Architecture001
DYEAR=2003
DGENRE=Blues
TTITLE0=UsagiYa
TTITLE1=Kurayami no Yami
TTITLE2=Ganjya no Mori
TTITLE3=Mararia no Yoake
TTITLE4=Arukaick
TTITLE5=AkachicRecord
EXTD=YEAR: 2003
EXTT0=
EXTT1=
EXTT2=
EXTT3=
EXTT4=
EXTT5=
PLAYORDER=
